<?xml version="1.0" encoding="UTF-8" standalone="no"?>
<!-- Created with Inkscape (http://www.inkscape.org/) -->

<svg
   width="210mm"
   height="297mm"
   viewBox="0 0 210 297"
   version="1.1"
   id="svg5"
   xml:space="preserve"
   sodipodi:docname="Desain Apk.svg"
   inkscape:version="1.2.2 (b0a8486541, 2022-12-01)"
   inkscape:export-filename="Desain Apk.png"
   inkscape:export-xdpi="96"
   inkscape:export-ydpi="96"
   xmlns:inkscape="http://www.inkscape.org/namespaces/inkscape"
   xmlns:sodipodi="http://sodipodi.sourceforge.net/DTD/sodipodi-0.dtd"
   xmlns="http://www.w3.org/2000/svg"
   xmlns:svg="http://www.w3.org/2000/svg"><sodipodi:namedview
     id="namedview7"
     pagecolor="#ffffff"
     bordercolor="#000000"
     borderopacity="0.25"
     inkscape:showpageshadow="2"
     inkscape:pageopacity="0.0"
     inkscape:pagecheckerboard="0"
     inkscape:deskcolor="#d1d1d1"
     inkscape:document-units="mm"
     showgrid="false"
     showguides="false"
     inkscape:zoom="0.47126122"
     inkscape:cx="580.35754"
     inkscape:cy="535.79626"
     inkscape:window-width="1366"
     inkscape:window-height="702"
     inkscape:window-x="0"
     inkscape:window-y="0"
     inkscape:window-maximized="1"
     inkscape:current-layer="layer1"><sodipodi:guide
       position="55.976389,329.15666"
       orientation="0,-1"
       id="guide400"
       inkscape:locked="false" /></sodipodi:namedview><defs
     id="defs2" /><g
     inkscape:label="Layer 1"
     inkscape:groupmode="layer"
     id="layer1"><rect
       style="fill:#f9f9f9;stroke-width:0.266643"
       id="rect273"
       width="210.52538"
       height="299.00781"
       x="-0.35781464"
       y="-1.8348207" /><path
       d="m 40.207165,49.177165 q -2.80479,0 -4.763689,-2.005434 -1.958904,-2.005428 -1.958904,-4.83126 0,-2.871415 1.958904,-4.854057 1.958899,-1.982639 4.719167,-1.982639 2.80479,0 4.74143,1.982639 1.936639,1.982642 1.936639,4.808478 0,2.871411 -1.936639,4.876839 -1.93664,2.005434 -4.696908,2.005434 z m -0.04452,-2.734678 q 1.691776,0 2.849308,-1.207816 1.157533,-1.207816 1.157533,-2.8942 0,-1.731966 -1.157533,-2.916992 -1.157532,-1.185027 -2.804789,-1.185027 -1.691776,0 -2.871568,1.185027 -1.179792,1.185026 -1.179792,2.871413 0,1.731963 1.179792,2.939779 1.179792,1.207816 2.827049,1.207816 z M 60.55301,71.054588 54.320145,64.673671 q -1.023969,0.774826 -2.114721,1.071084 -1.090751,0.296259 -2.248285,0.296259 -3.16095,0 -5.364714,-2.256107 -2.203763,-2.256114 -2.203763,-5.49215 0,-3.236037 2.203763,-5.492146 2.203761,-2.256107 5.364714,-2.256107 3.160954,0 5.364718,2.256107 2.203759,2.256109 2.203759,5.492146 0,1.185026 -0.289382,2.301688 -0.289386,1.116661 -1.046234,2.164951 l 6.232867,6.380918 z M 49.957139,63.306332 q 2.092464,0 3.494858,-1.435703 1.402393,-1.435708 1.402393,-3.577872 0,-2.142165 -1.402393,-3.577873 -1.402394,-1.435703 -3.494858,-1.435703 -2.092462,0 -3.494854,1.435703 -1.402396,1.435708 -1.402396,3.577873 0,2.142164 1.402396,3.577872 1.402392,1.435703 3.494854,1.435703 z M 25.91609,64.673671 v -4.284326 q 0,-1.686384 0.77911,-2.871414 0.779106,-1.185026 2.248281,-1.959852 2.092462,-1.048294 5.453756,-1.982643 3.361295,-0.934348 6.833891,-0.706457 -0.356162,0.592512 -0.667805,1.298971 -0.31163,0.70646 -0.489726,1.390129 -3.472597,-0.04558 -6.054785,0.843194 -2.582183,0.888767 -4.006841,1.618016 -0.623285,0.364623 -1.023967,0.979926 -0.400687,0.615303 -0.400687,1.39013 v 1.549648 h 11.48628 q 0.489726,0.774827 0.890408,1.435707 0.400686,0.660881 0.890412,1.298971 z m 14.246548,-22.3332 z m -0.08905,19.598522 z"
       id="path391"
       style="stroke-width:0.900922" /><text
       xml:space="preserve"
       style="font-style:normal;font-variant:normal;font-weight:normal;font-stretch:normal;font-size:14.53px;font-family:'Droid Arabic Kufi';-inkscape-font-specification:'Droid Arabic Kufi, Normal';font-variant-ligatures:normal;font-variant-caps:normal;font-variant-numeric:normal;font-variant-east-asian:normal;fill:#000000;stroke-width:1.21083"
       x="26.079029"
       y="88.2995"
       id="text719"><tspan
         sodipodi:role="line"
         id="tspan717"
         style="font-style:normal;font-variant:normal;font-weight:bold;font-stretch:normal;font-size:14.53px;font-family:'Droid Arabic Kufi';-inkscape-font-specification:'Droid Arabic Kufi, Normal';font-variant-ligatures:normal;font-variant-caps:normal;font-variant-numeric:normal;font-variant-east-asian:normal;stroke-width:1.21083"
         x="26.079029"
         y="88.2995">SELAMAT DATANG</tspan></text><text
       xml:space="preserve"
       style="font-style:normal;font-variant:normal;font-weight:normal;font-stretch:normal;font-size:11.2017px;font-family:'Droid Arabic Kufi';-inkscape-font-specification:'Droid Arabic Kufi, Normal';font-variant-ligatures:normal;font-variant-caps:normal;font-variant-numeric:normal;font-variant-east-asian:normal;fill:#000000;stroke-width:0.264583"
       x="26.173689"
       y="104.18898"
       id="text773"><tspan
         sodipodi:role="line"
         id="tspan771"
         style="stroke-width:0.264583"
         x="26.173689"
         y="104.18898">Cari Data Siswa Disini</tspan></text><path
       d="m 30.27758,183.79334 q 1.395017,-1.30201 3.162039,-2.10414 1.767022,-0.80215 3.813045,-0.80215 2.046026,0 3.813048,0.80215 1.767021,0.80213 3.162037,2.10414 v -13.0899 H 30.27758 Z m 7.021587,-4.74305 q 1.348515,0 2.278527,-0.93002 0.930012,-0.93 0.930012,-2.27851 0,-1.34854 -0.930012,-2.27853 -0.930012,-0.93002 -2.278527,-0.93002 -1.348518,0 -2.278529,0.93002 -0.93001,0.92999 -0.93001,2.27853 0,1.34851 0.93001,2.27851 0.930011,0.93002 2.278529,0.93002 z m -7.021587,6.99833 q -0.558006,0 -0.976509,-0.41851 -0.418506,-0.41849 -0.418506,-0.97651 v -13.95016 q 0,-0.558 0.418506,-0.97652 0.418503,-0.4185 0.976509,-0.4185 h 13.950169 q 0.558007,0 0.976511,0.4185 0.418506,0.41852 0.418506,0.97652 v 13.95016 q 0,0.55802 -0.418506,0.97651 -0.418504,0.41851 -0.976511,0.41851 z m 1.278766,-1.39502 h 11.392638 v -0.20925 q -1.255516,-1.0695 -2.697031,-1.6159 -1.44152,-0.54638 -2.999289,-0.54638 -1.557768,0 -2.999284,0.54638 -1.44152,0.5464 -2.697034,1.6159 z m 5.742821,-6.99832 q -0.744011,0 -1.278768,-0.53476 -0.534754,-0.53476 -0.534754,-1.27876 0,-0.76727 0.534754,-1.2904 0.534757,-0.52314 1.278768,-0.52314 0.767258,0 1.290388,0.52314 0.523133,0.52313 0.523133,1.2904 0,0.744 -0.523133,1.27876 -0.52313,0.53476 -1.290388,0.53476 z m -0.0465,-0.41851 z"
       id="path815"
       style="stroke-width:0.465005" /><rect
       style="fill:#e6e6e6;stroke-width:0.280102"
       id="rect824"
       width="127.31934"
       height="17.276875"
       x="54.984066"
       y="169.39714" /><rect
       style="fill:#e6e6e6;stroke-width:0.208712"
       id="rect828"
       width="70.690109"
       height="17.276875"
       x="111.6133"
       y="197.12651" /><rect
       style="fill:#f9f9f9;stroke-width:0.266643"
       id="rect830"
       width="210.52538"
       height="299.00781"
       x="249.0265"
       y="-1.8348207" /><rect
       style="fill:#e6e6e6;stroke-width:0.326313"
       id="rect832"
       width="169.17474"
       height="141.61385"
       x="269.70181"
       y="34.674377" /><rect
       style="fill:#e6e6e6;stroke-width:0.25089"
       id="rect836"
       width="169.17474"
       height="83.715233"
       x="269.70181"
       y="183.60545" /><rect
       style="fill:#f9f9f9;stroke-width:0.266643"
       id="rect895"
       width="210.52538"
       height="299.00781"
       x="-240.33995"
       y="-1.8348207" /><rect
       style="fill:#e6e6e6;stroke-width:0.719617"
       id="rect897"
       width="211.31122"
       height="68.707886"
       x="-240.73288"
       y="228.21599" /><g
       id="g914"
       transform="translate(-2.3036943)"><path
         d="m -168.30791,79.474703 q -2.80479,0 -4.76369,-2.005434 -1.9589,-2.005428 -1.9589,-4.83126 0,-2.871415 1.9589,-4.854057 1.9589,-1.982639 4.71917,-1.982639 2.80479,0 4.74143,1.982639 1.93664,1.982642 1.93664,4.808478 0,2.871411 -1.93664,4.876839 -1.93664,2.005434 -4.69691,2.005434 z m -0.0445,-2.734678 q 1.69178,0 2.84931,-1.207816 1.15753,-1.207816 1.15753,-2.8942 0,-1.731966 -1.15753,-2.916992 -1.15753,-1.185027 -2.80479,-1.185027 -1.69178,0 -2.87157,1.185027 -1.17979,1.185026 -1.17979,2.871413 0,1.731963 1.17979,2.939779 1.17979,1.207816 2.82705,1.207816 z m 20.39037,24.612105 -6.23287,-6.380921 q -1.02397,0.774826 -2.11472,1.071084 -1.09075,0.296259 -2.24829,0.296259 -3.16095,0 -5.36471,-2.256107 -2.20376,-2.256114 -2.20376,-5.49215 0,-3.236037 2.20376,-5.492146 2.20376,-2.256107 5.36471,-2.256107 3.16096,0 5.36472,2.256107 2.20376,2.256109 2.20376,5.492146 0,1.185026 -0.28938,2.301688 -0.28939,1.116661 -1.04623,2.164951 l 6.23286,6.380918 z m -10.59588,-7.74826 q 2.09247,0 3.49486,-1.435703 1.4024,-1.435708 1.4024,-3.577872 0,-2.142165 -1.4024,-3.577873 -1.40239,-1.435703 -3.49486,-1.435703 -2.09246,0 -3.49485,1.435703 -1.4024,1.435708 -1.4024,3.577873 0,2.142164 1.4024,3.577872 1.40239,1.435703 3.49485,1.435703 z m -24.04104,1.367339 v -4.284326 q 0,-1.686384 0.77911,-2.871414 0.7791,-1.185026 2.24828,-1.959852 2.09246,-1.048294 5.45375,-1.982643 3.3613,-0.934348 6.83389,-0.706457 -0.35616,0.592512 -0.6678,1.298971 -0.31163,0.70646 -0.48973,1.390129 -3.47259,-0.04558 -6.05478,0.843194 -2.58219,0.888767 -4.00684,1.618016 -0.62329,0.364623 -1.02397,0.979926 -0.40069,0.615303 -0.40069,1.39013 v 1.549648 h 11.48628 q 0.48973,0.774827 0.89041,1.435707 0.40069,0.660881 0.89041,1.298971 z m 14.24654,-22.3332 z m -0.089,19.598522 z"
         id="path899"
         style="stroke-width:0.900922" /><text
         xml:space="preserve"
         style="font-style:normal;font-variant:normal;font-weight:normal;font-stretch:normal;font-size:14.53px;font-family:'Droid Arabic Kufi';-inkscape-font-specification:'Droid Arabic Kufi, Normal';font-variant-ligatures:normal;font-variant-caps:normal;font-variant-numeric:normal;font-variant-east-asian:normal;fill:#000000;stroke-width:1.21083"
         x="-182.43605"
         y="118.59704"
         id="text903"><tspan
           sodipodi:role="line"
           id="tspan901"
           style="font-style:normal;font-variant:normal;font-weight:bold;font-stretch:normal;font-size:14.53px;font-family:'Droid Arabic Kufi';-inkscape-font-specification:'Droid Arabic Kufi, Normal';font-variant-ligatures:normal;font-variant-caps:normal;font-variant-numeric:normal;font-variant-east-asian:normal;stroke-width:1.21083"
           x="-182.43605"
           y="118.59704">CDS</tspan></text><text
         xml:space="preserve"
         style="font-style:normal;font-variant:normal;font-weight:normal;font-stretch:normal;font-size:11.2017px;font-family:'Droid Arabic Kufi';-inkscape-font-specification:'Droid Arabic Kufi, Normal';font-variant-ligatures:normal;font-variant-caps:normal;font-variant-numeric:normal;font-variant-east-asian:normal;fill:#000000;stroke-width:0.264583"
         x="-182.34138"
         y="134.48651"
         id="text907"><tspan
           sodipodi:role="line"
           id="tspan905"
           style="stroke-width:0.264583"
           x="-182.34138"
           y="134.48651">Check Data Siswa</tspan></text></g></g></svg>
